<?xml version="1.0" encoding="utf-8"?>
<!-- Generator: Adobe Illustrator 22.0.1, SVG Export Plug-In . SVG Version: 6.00 Build 0)  -->
<svg version="1.1" id="_x37C_" xmlns="http://www.w3.org/2000/svg" xmlns:xlink="http://www.w3.org/1999/xlink" x="0px" y="0px"
	 viewBox="0 0 588.9 589.5" style="enable-background:new 0 0 588.9 589.5;" xml:space="preserve">
<rect x="0" y="0.6" style="fill-rule:evenodd;clip-rule:evenodd;fill:#4B88C7;" width="588.9" height="588.9"/>
<g>
	<path style="fill:#FFFFFF;" d="M220.4,184.6v291.1H98.9V67.3h158.3c69.4,0,123.8,15.8,163.1,47.3c46.7,37.7,70,88.9,70,153.5
		c0,61.8-19.9,112.3-59.8,151.4c-39.9,39.1-91.3,58.6-154.1,58.6c-7.4,0-19.4-0.4-36.2-1.2v-120h19.4c70.8,0,106.2-29.6,106.2-88.9
		c0-55.7-34.8-83.5-104.4-83.5H220.4z"/>
</g>
<g>
	<path style="fill:#FFFFFF;" d="M118.3,506.9c6.5,0,12.1,2.4,16.7,7.1c4.6,4.7,7,10.4,7,17c0,6.7-2.3,12.4-7,17.1
		c-4.7,4.7-10.4,7-17.1,7c-6.6,0-12.3-2.4-17-7.1c-4.7-4.7-7.1-10.4-7.1-17c0-6.7,2.4-12.4,7.1-17.1
		C105.6,509.2,111.4,506.9,118.3,506.9z M117.9,520.4c-2.8,0-5.2,1-7.2,3.1c-2,2.1-3,4.5-3,7.5s1,5.4,3,7.5s4.4,3.1,7.1,3.1
		c2.8,0,5.2-1,7.2-3.1c2-2,2.9-4.5,2.9-7.5c0-2.9-1-5.4-2.9-7.5C123.1,521.4,120.7,520.4,117.9,520.4z"/>
	<path style="fill:#FFFFFF;" d="M147.2,553.8v-29.8c0-5.2,1.6-9.4,4.7-12.5c3.1-3.1,7.3-4.7,12.5-4.7c5.2,0,9.1,1.5,11.9,4.6
		c2.7,3,4.1,7.4,4.1,13.1v29.3h-13.6v-29.3c0-2.8-1-4.2-3-4.2c-1.9,0-2.9,1.4-2.9,4.2v29.3H147.2z"/>
	<path style="fill:#FFFFFF;" d="M212.9,525.8V536H204c-1.2,0-2.1,0.2-2.6,0.5c-0.5,0.4-0.8,1-0.8,1.8c0,1,0.3,1.6,0.8,1.9
		c0.5,0.3,1.6,0.5,3.2,0.5h9.2v13.1h-10.7c-5,0-8.9-1.2-11.6-3.6c-2.7-2.4-4-5.9-4-10.4v-18c0-4.4,1.3-7.8,3.8-10.2
		c2.5-2.4,6.1-3.6,10.6-3.6h11.9v13.2h-8.7c-2.4,0-3.5,0.8-3.5,2.3c0,0.9,0.3,1.5,0.8,1.9c0.6,0.3,1.6,0.5,3,0.5H212.9z"/>
	<path style="fill:#FFFFFF;" d="M253,508l-11.9,22.3l12.3,23.5h-14.3l-5.6-11.1l-4.8,11.1h-14.1l12.6-23.2L215.2,508h14.2l5.3,10.4
		l4.3-10.4H253z"/>
	<path style="fill:#FFFFFF;" d="M269.2,508v45.8h-13.6V508H269.2z"/>
	<path style="fill:#FFFFFF;" d="M277.2,553.8v-29.8c0-5.2,1.6-9.4,4.7-12.5c3.1-3.1,7.3-4.7,12.5-4.7c5.2,0,9.1,1.5,11.9,4.6
		c2.7,3,4.1,7.4,4.1,13.1v29.3h-13.6v-29.3c0-2.8-1-4.2-3-4.2c-1.9,0-2.9,1.4-2.9,4.2v29.3H277.2z"/>
	<path style="fill:#FFFFFF;" d="M326.8,538.8c2.2,0,4.1,0.8,5.7,2.4c1.6,1.6,2.4,3.5,2.4,5.7c0,2.2-0.8,4.1-2.4,5.6
		c-1.6,1.5-3.5,2.3-5.7,2.3c-2.3,0-4.2-0.7-5.7-2.2c-1.5-1.5-2.2-3.4-2.2-5.7c0-2.2,0.8-4.1,2.3-5.7
		C322.8,539.6,324.6,538.8,326.8,538.8z"/>
	<path style="fill:#FFFFFF;" d="M375.3,531.4l14.3,0.4c-0.9,7.4-3.5,13.1-7.7,17.1s-9.6,6-16.3,6c-6.8,0-12.5-2.3-17.1-6.9
		c-4.6-4.6-6.9-10.3-6.9-17c0-6.8,2.3-12.6,7-17.2c4.7-4.7,10.5-7,17.3-7c6.8,0,12.4,2.3,16.9,6.9c3.1,3.2,5.4,7.6,6.6,13.2l-14.6,1
		c-1.6-5-4.7-7.5-9.3-7.5c-2.9,0-5.3,1-7.2,3c-1.9,2-2.8,4.6-2.8,7.7c0,3,0.9,5.5,2.8,7.4c1.9,2,4.2,2.9,7.1,2.9
		c2.9,0,5.2-0.9,6.9-2.6C374,537.1,375,534.7,375.3,531.4z"/>
	<path style="fill:#FFFFFF;" d="M417.6,506.9c6.5,0,12.1,2.4,16.7,7.1c4.6,4.7,7,10.4,7,17c0,6.7-2.3,12.4-7,17.1
		c-4.7,4.7-10.4,7-17.1,7c-6.6,0-12.3-2.4-17-7.1c-4.7-4.7-7.1-10.4-7.1-17c0-6.7,2.4-12.4,7.1-17.1
		C404.9,509.2,410.7,506.9,417.6,506.9z M417.2,520.4c-2.8,0-5.2,1-7.2,3.1c-2,2.1-3,4.5-3,7.5s1,5.4,3,7.5s4.4,3.1,7.1,3.1
		c2.8,0,5.2-1,7.2-3.1c2-2,2.9-4.5,2.9-7.5c0-2.9-1-5.4-2.9-7.5C422.4,521.4,420,520.4,417.2,520.4z"/>
	<path style="fill:#FFFFFF;" d="M446.5,553.8v-33c0-4.1,1.2-7.4,3.7-10c2.5-2.6,5.7-3.9,9.7-3.9c4.7,0,8.3,2.2,10.8,6.5
		c1.5-2.3,3.2-4,5-5c1.8-1,4-1.5,6.5-1.5c4.1,0,7.3,1.3,9.5,3.9c2.2,2.6,3.3,6.3,3.3,11.2v31.9h-13.6V524c0-1.5-0.1-2.5-0.4-2.9
		c-0.2-0.5-0.7-0.7-1.4-0.7c-1.3,0-2,1.1-2,3.4v30.1H464V524c0-1.5-0.1-2.4-0.4-2.9c-0.2-0.5-0.7-0.7-1.4-0.7c-1.3,0-2,1.2-2,3.7
		v29.8H446.5z"/>
</g>
</svg>
